<?xml version="1.0" encoding="UTF-8"?>
<!DOCTYPE svg PUBLIC "-//W3C//DTD SVG 1.1//EN" "http://www.w3.org/Graphics/SVG/1.1/DTD/svg11.dtd">
<!-- Creator: CorelDRAW X7 -->
<svg xmlns="http://www.w3.org/2000/svg" xml:space="preserve" width="2.79431in" height="5.25427in" version="1.1" style="shape-rendering:geometricPrecision; text-rendering:geometricPrecision; image-rendering:optimizeQuality; fill-rule:evenodd; clip-rule:evenodd"
viewBox="0 0 5466 10279"
 xmlns:xlink="http://www.w3.org/1999/xlink">
 <defs>
  <style type="text/css">
   <![CDATA[
    .str0 {stroke:#1D1819;stroke-width:40.7507}
    .str3 {stroke:#1D1819;stroke-width:27.1646}
    .str31 {stroke:#1D1819;stroke-width:27.1646}
    .str39 {stroke:#332C2B;stroke-width:13.5861}
    .str2 {stroke:#332C2B;stroke-width:13.5861}
    .str32 {stroke:#332C2B;stroke-width:13.5861}
    .str14 {stroke:#1D1819;stroke-width:5.86884}
    .str23 {stroke:#332C2B;stroke-width:20.0942}
    .str42 {stroke:#1D1819;stroke-width:30.1375;stroke-linecap:round;stroke-linejoin:round}
    .str43 {stroke:#1D1819;stroke-width:30.1375;stroke-linecap:round;stroke-linejoin:round}
    .str40 {stroke:#1D1819;stroke-width:30.1375;stroke-linecap:round;stroke-linejoin:round}
    .str41 {stroke:#1D1819;stroke-width:30.1375;stroke-linecap:round;stroke-linejoin:round}
    .str33 {stroke:#1D1819;stroke-width:34.3273;stroke-linecap:round;stroke-linejoin:round}
    .str36 {stroke:#1D1819;stroke-width:34.3273;stroke-linecap:round;stroke-linejoin:round}
    .str38 {stroke:#1D1819;stroke-width:34.3273;stroke-linecap:round;stroke-linejoin:round}
    .str35 {stroke:#1D1819;stroke-width:34.3273;stroke-linecap:round;stroke-linejoin:round}
    .str37 {stroke:#1D1819;stroke-width:34.3273;stroke-linecap:round;stroke-linejoin:round}
    .str34 {stroke:#1D1819;stroke-width:34.3273;stroke-linecap:round;stroke-linejoin:round}
    .str1 {stroke:#1D1819;stroke-width:34.3273;stroke-linecap:round;stroke-linejoin:round}
    .str13 {stroke:#1D1819;stroke-width:34.3273;stroke-linecap:round;stroke-linejoin:round}
    .str7 {stroke:#A1A1A1;stroke-width:34.3273;stroke-linecap:round;stroke-linejoin:round}
    .str20 {stroke:#1D1819;stroke-width:34.3273;stroke-linecap:round;stroke-linejoin:round}
    .str16 {stroke:#1D1819;stroke-width:34.3273;stroke-linecap:round;stroke-linejoin:round}
    .str19 {stroke:#1D1819;stroke-width:34.3273;stroke-linecap:round;stroke-linejoin:round}
    .str9 {stroke:#1D1819;stroke-width:34.3273;stroke-linecap:round;stroke-linejoin:round}
    .str6 {stroke:#1D1819;stroke-width:34.3273;stroke-linecap:round;stroke-linejoin:round}
    .str5 {stroke:#1D1819;stroke-width:34.3273;stroke-linecap:round;stroke-linejoin:round}
    .str15 {stroke:#1D1819;stroke-width:34.3273;stroke-linecap:round;stroke-linejoin:round}
    .str22 {stroke:#1D1819;stroke-width:34.3273;stroke-linecap:round;stroke-linejoin:round}
    .str11 {stroke:#1D1819;stroke-width:34.3273;stroke-linecap:round;stroke-linejoin:round}
    .str12 {stroke:#1D1819;stroke-width:34.3273;stroke-linecap:round;stroke-linejoin:round}
    .str17 {stroke:#1D1819;stroke-width:34.3273;stroke-linecap:round;stroke-linejoin:round}
    .str10 {stroke:#1D1819;stroke-width:34.3273;stroke-linecap:round;stroke-linejoin:round}
    .str18 {stroke:#1D1819;stroke-width:34.3273;stroke-linecap:round;stroke-linejoin:round}
    .str4 {stroke:#1D1819;stroke-width:34.3273;stroke-linecap:round;stroke-linejoin:round}
    .str21 {stroke:#1D1819;stroke-width:34.3273;stroke-linecap:round;stroke-linejoin:round}
    .str8 {stroke:#1D1819;stroke-width:34.3273;stroke-linecap:round;stroke-linejoin:round}
    .str28 {stroke:#1D1819;stroke-width:34.3273;stroke-linecap:round;stroke-linejoin:round}
    .str29 {stroke:#1D1819;stroke-width:34.3273;stroke-linecap:round;stroke-linejoin:round}
    .str25 {stroke:#1D1819;stroke-width:34.3273;stroke-linecap:round;stroke-linejoin:round}
    .str26 {stroke:#1D1819;stroke-width:34.3273;stroke-linecap:round;stroke-linejoin:round}
    .str24 {stroke:#1D1819;stroke-width:34.3273;stroke-linecap:round;stroke-linejoin:round}
    .str27 {stroke:#1D1819;stroke-width:34.3273;stroke-linecap:round;stroke-linejoin:round}
    .str30 {stroke:#1D1819;stroke-width:27.1646;stroke-linecap:round;stroke-linejoin:round}
    .fil2 {fill:none}
    .fil5 {fill:#FEFEFE}
    .fil17 {fill:#B6B6B7}
    .fil19 {fill:#332C2B}
    .fil31 {fill:#FFF000}
    .fil21 {fill:#FFF000}
    .fil8 {fill:#D3D8DE}
    .fil26 {fill:#C78726}
    .fil25 {fill:#C6CCD3}
    .fil12 {fill:#1D1819}
    .fil20 {fill:#1D1819}
    .fil24 {fill:#006CB7}
    .fil23 {fill:#0195FF}
    .fil4 {fill:#04185F}
    .fil10 {fill:#042840}
    .fil3 {fill:#052CAB}
    .fil22 {fill:#052CAB}
    .fil9 {fill:#114668}
    .fil13 {fill:#186090}
    .fil14 {fill:#1D6FA7}
    .fil16 {fill:#905E09}
    .fil15 {fill:#C28005}
    .fil11 {fill:#D48A07}
    .fil27 {fill:#F28EE4}
    .fil7 {fill:#F3BA49}
    .fil6 {fill:#F8C768}
    .fil18 {fill:#F8C768}
    .fil1 {fill:#FBA721}
    .fil0 {fill:#FBB542}
    .fil29 {fill:#FEFEFE}
    .fil30 {fill:url(#id61)}
    .fil28 {fill:url(#id62)}
   ]]>
  </style>
   <clipPath id="id0">
    <path d="M4746 4590c0,0 28,650 88,854 60,203 301,957 -181,1062 -482,106 -515,-51 -515,-51l-133 -846 741 -1019z"/>
   </clipPath>
   <clipPath id="id1">
    <path d="M2146 6754c0,0 154,374 742,431 588,57 809,-356 827,-401 17,-45 -835,191 -1569,-30z"/>
   </clipPath>
   <clipPath id="id2">
    <path d="M2047 4112c0,0 -319,1502 -301,1966 17,465 -17,446 -8,543 5,55 112,58 308,99 299,62 766,176 1259,135 161,-14 292,-36 399,-65 438,-120 477,-359 453,-614 -30,-316 -32,-515 -32,-515l-81 -1673 -743 67 -586 384 -252 -332 -416 5z"/>
   </clipPath>
    <clipPath id="id3">
     <path d="M3542 6825c0,0 -127,-685 590,-971l0 0c2,36 5,77 8,121 0,1 -606,319 -374,796 -20,7 -40,13 -62,19 -49,13 -103,25 -162,35z"/>
    </clipPath>
    <clipPath id="id4">
     <path d="M2047 4112c0,0 -319,1502 -301,1966 17,465 -17,446 -8,543 5,55 112,58 308,99 299,62 766,176 1259,135 161,-14 292,-36 399,-65 438,-120 477,-359 453,-614 -30,-316 -32,-515 -32,-515l-81 -1673 -743 67 -586 384 -252 -332 -416 5z"/>
    </clipPath>
    <clipPath id="id5">
     <path d="M2263 6766c-24,-213 -131,-522 -518,-707 0,7 0,13 1,19 1,46 2,87 3,124 126,87 342,274 340,527 54,12 112,24 174,37z"/>
    </clipPath>
    <clipPath id="id6">
     <path d="M2047 4112c0,0 -319,1502 -301,1966 17,465 -17,446 -8,543 5,55 112,58 308,99 299,62 766,176 1259,135 161,-14 292,-36 399,-65 438,-120 477,-359 453,-614 -30,-316 -32,-515 -32,-515l-81 -1673 -743 67 -586 384 -252 -332 -416 5z"/>
    </clipPath>
   <clipPath id="id7">
    <path d="M1834 4856c0,0 -284,61 -91,-430 193,-491 232,-476 232,-476l341 66c0,0 -98,158 -132,241 -34,83 -230,587 -350,599z"/>
   </clipPath>
   <clipPath id="id8">
    <path d="M3568 4135c0,0 -446,547 -77,1015l279 -332c0,0 -4,-19 -8,-54 -12,-117 -20,-405 153,-713 0,0 -226,67 -347,84z"/>
   </clipPath>
   <clipPath id="id9">
    <path d="M4250 5896c0,0 -49,-211 41,-238 91,-26 441,-162 441,-162 0,0 89,317 89,494 0,177 -194,305 -390,260 -196,-45 -181,-354 -181,-354z"/>
   </clipPath>
   <clipPath id="id10">
    <path d="M4235 5613l482 -169c0,0 86,177 64,312 -22,136 -526,303 -561,72 -35,-231 15,-215 15,-215z"/>
   </clipPath>
   <clipPath id="id11">
    <path d="M1830 6664c0,0 -152,307 -106,688 0,0 163,124 360,30 0,0 -4,-368 101,-544l-52 -79 -303 -95z"/>
   </clipPath>
   <clipPath id="id12">
    <path d="M3562 6914c0,0 132,205 123,487 0,0 169,167 403,-142 0,0 -68,-462 -156,-538l-226 72 -97 31 -47 90z"/>
   </clipPath>
   <clipPath id="id13">
    <path d="M1609 8121c0,0 -124,-390 3,-723 0,0 36,-49 112,-46 0,0 54,-127 -79,-88 -133,40 -260,340 -191,670 70,330 140,442 336,417 197,-24 240,-266 252,-445 12,-178 -9,-387 181,-424 0,0 53,-12 53,-75 0,-62 -158,1 -183,31 -25,29 -132,68 -160,483 -27,414 -269,339 -324,200z"/>
   </clipPath>
   <clipPath id="id14">
    <path d="M3645 7514c0,0 -82,-46 -59,-93 22,-47 84,-25 111,19 28,44 108,118 175,450 0,0 12,166 27,186 14,20 105,74 184,-19 79,-92 57,-481 57,-481 0,0 -31,-231 -74,-274l22 -43c0,0 84,76 115,209 32,134 59,703 -146,769 -206,67 -252,-206 -264,-342 -12,-136 -79,-363 -148,-381z"/>
   </clipPath>
   <clipPath id="id15">
    <path d="M2084 7382c0,0 58,5 61,13 4,9 -155,47 -192,349 -37,302 -1,406 -197,487 -195,82 -202,-487 -202,-487 0,0 -2,-321 78,-365 80,-44 105,-18 105,-18 0,0 175,104 347,21z"/>
   </clipPath>
   <clipPath id="id16">
    <path d="M3389 8772c0,0 -42,6 -36,-267 6,-272 -49,-375 -25,-460 25,-85 51,-545 261,-582 0,0 15,59 95,64 0,0 83,155 119,451 37,296 194,287 291,240 97,-47 133,-301 131,-447 -3,-146 16,-265 -65,-414 0,0 134,48 195,299 60,251 45,621 239,924 0,0 14,218 -165,432 -179,215 -415,143 -415,143 0,0 -487,-70 -625,-383z"/>
   </clipPath>
   <clipPath id="id17">
    <path d="M1429 7674c8,1 -145,825 -315,1001 0,0 -18,160 128,330 145,169 375,230 593,121 218,-109 600,-521 624,-636 24,-115 -23,-1061 -183,-1083 0,0 19,72 -141,114 0,0 -102,47 -93,385 8,339 -173,421 -173,421 0,0 -406,245 -440,-653z"/>
   </clipPath>
   <clipPath id="id18">
    <path d="M1081 8902c0,0 -21,245 412,393 433,149 917,-527 938,-593 22,-67 16,-141 -33,-102 -48,38 -376,560 -821,579 0,0 -310,-27 -430,-328l-30 -111 -36 162z"/>
   </clipPath>
   <clipPath id="id19">
    <path d="M924 9649c0,0 -36,-596 157,-732 0,0 30,294 492,397 0,0 426,66 858,-612 0,0 146,708 -42,1117 0,0 -182,-179 -285,-124 0,0 61,157 13,245 -49,88 -312,103 -370,27 0,0 -45,-269 -169,-302 0,0 -106,90 -76,345 0,0 -61,112 -336,-27l-55 -28c0,0 76,-293 -100,-387 0,0 -30,9 -87,81z"/>
   </clipPath>
   <clipPath id="id20">
    <path d="M775 9970c0,0 212,52 336,-15 0,0 76,-293 -100,-387 0,0 -284,203 -236,402z"/>
   </clipPath>
   <clipPath id="id21">
    <path d="M1702 10134c0,0 -161,-30 -200,-124 0,0 -36,-242 76,-345 0,0 136,27 169,302 0,0 61,137 -45,167z"/>
   </clipPath>
   <clipPath id="id22">
    <path d="M2117 9940c0,0 184,73 293,0 0,0 -42,-278 -306,-245 0,0 79,176 13,245z"/>
   </clipPath>
   <clipPath id="id23">
    <path d="M3389 8772c0,0 -41,97 56,242 97,145 560,288 754,288 194,0 436,-318 445,-409 9,-91 -57,-220 -57,-220 0,0 -49,419 -479,494 0,0 -557,-62 -719,-395z"/>
   </clipPath>
   <clipPath id="id24">
    <path d="M3300 9922c0,0 -167,-643 81,-1072 0,0 12,216 273,309 260,94 478,151 580,139 101,-12 349,-226 410,-405 0,0 145,179 124,727l-169 -7c0,0 -52,179 15,337 0,0 -194,196 -415,148 0,0 -64,-306 -118,-312 -55,-6 -179,221 -158,342 0,0 -245,43 -424,-63 0,0 -15,-209 -57,-209 -42,0 -46,12 -142,66z"/>
   </clipPath>
   <clipPath id="id25">
    <path d="M4983 10025c0,0 -260,18 -369,-75 0,0 -64,-164 -15,-337 0,0 366,-60 384,412z"/>
   </clipPath>
   <clipPath id="id26">
    <path d="M3987 10258c0,0 -102,-61 -64,-192 38,-130 58,-219 158,-280 0,0 121,127 115,379 0,0 -103,118 -209,93z"/>
   </clipPath>
   <clipPath id="id27">
    <path d="M3709 7428c4,-7 38,42 120,17 82,-25 226,-146 226,-146 0,0 69,109 83,261 13,153 13,339 -16,434 -28,96 -163,161 -219,65 -56,-95 54,-177 -194,-631z"/>
   </clipPath>
   <clipPath id="id28">
    <path d="M3287 4136c0,0 -335,238 -591,167 -256,-72 -301,-214 -301,-214l-104 -33 -36 53c0,0 100,256 280,293l75 22 22 121 83 -106c0,0 566,-85 637,-297 0,0 -68,-5 -65,-6z"/>
   </clipPath>
   <clipPath id="id29">
    <path d="M1687 4606c0,0 -325,-69 -558,-236 -138,-98 -286,-283 -326,-371l401 -628c0,0 493,396 556,539 0,0 -74,404 -73,696z"/>
   </clipPath>
     <clipPath id="id30">
      <path d="M1440 3639c0,0 12,-21 45,-28 123,111 246,232 275,299 0,0 -6,32 -14,84 -23,44 -45,86 -57,114 0,0 -299,-215 -249,-469z"/>
     </clipPath>
     <clipPath id="id31">
      <path d="M1687 4606c0,0 -325,-69 -558,-236 -138,-98 -286,-283 -326,-371l401 -628c0,0 493,396 556,539 0,0 -74,404 -73,696z"/>
     </clipPath>
   <clipPath id="id32">
    <path d="M837 4073c-270,-357 -532,-710 -565,-932 -64,-432 390,-791 689,-602 201,127 353,514 379,945 0,0 -26,14 -49,60 -60,114 -234,726 -454,529z"/>
   </clipPath>
   <clipPath id="id33">
    <path d="M1687 4606c0,0 -313,-494 -12,-811 0,0 177,118 300,155 0,0 -198,316 -288,656z"/>
   </clipPath>
   <clipPath id="id34">
    <path d="M3424 4044c0,0 -221,840 -825,1578l-207 -172c0,0 522,-757 573,-1269 0,0 154,-228 273,-264 111,-33 188,125 186,127z"/>
   </clipPath>
   <clipPath id="id35">
    <path d="M2120 3959c0,0 -167,616 6,1553l265 -51c0,0 -92,-915 110,-1388 0,0 -383,-121 -381,-114z"/>
   </clipPath>
   <clipPath id="id36">
    <path d="M3222 4129c0,0 821,151 1213,-535 0,0 109,-332 -97,-499 0,0 -125,-97 -393,101 0,0 -88,127 -417,70 0,0 112,517 -306,863z"/>
   </clipPath>
   <clipPath id="id37">
    <path d="M2136 3994c0,0 532,263 1086,135 0,0 316,-488 111,-907 0,0 -264,-152 -404,-161 -141,-10 -190,-84 -811,68 0,0 -272,247 18,865z"/>
   </clipPath>
   <clipPath id="id38">
    <path d="M2136 3994c0,0 -260,-550 -18,-865l-192 9c0,0 -105,260 -2,574 28,86 71,176 137,267l75 15z"/>
   </clipPath>
   <clipPath id="id39">
    <path d="M3222 4129c0,0 405,-320 306,-863l-195 -44c0,0 197,358 -111,907z"/>
   </clipPath>
   <clipPath id="id40">
    <path d="M4716 4659c0,0 -72,-257 -384,-197 -313,60 -570,302 -570,302 0,0 -32,-236 36,-428 0,0 417,-609 854,-605 437,4 64,928 64,928z"/>
   </clipPath>
   <clipPath id="id41">
    <path d="M3795 4731c0,0 59,580 -158,855 0,0 794,-502 1033,-343 0,0 138,-647 -50,-954 0,0 -235,-344 -825,442z"/>
   </clipPath>
     <clipPath id="id42">
      <path d="M3942 5101c0,0 -73,31 -142,-109 6,-149 -5,-261 -5,-261 73,-98 141,-178 203,-243 1,1 200,454 -56,613z"/>
     </clipPath>
     <clipPath id="id43">
      <path d="M3795 4731c0,0 59,580 -158,855 0,0 794,-502 1033,-343 0,0 138,-647 -50,-954 0,0 -235,-344 -825,442z"/>
     </clipPath>
   <clipPath id="id44">
    <path d="M3637 5586c0,0 -179,249 -602,585 -422,335 -182,1125 533,921 715,-203 1102,-1849 1102,-1849 0,0 -189,-193 -1033,343z"/>
   </clipPath>
   <clipPath id="id45">
    <path d="M3945 3196l393 -101 131 -416 -113 -298 -758 -591 -1055 -98c0,0 -940,196 -883,196 57,0 -2,384 -2,384l311 -185c0,0 567,-247 1019,-186 452,62 1567,514 957,1295z"/>
   </clipPath>
   <clipPath id="id46">
    <path d="M2667 530c0,0 699,-260 1477,224 0,0 -441,562 -917,489 0,0 -536,-465 -560,-713z"/>
   </clipPath>
   <clipPath id="id47">
    <path d="M1719 2029c0,0 -60,-1266 385,-1937 0,0 105,-234 391,188 287,422 844,1236 1417,1530 0,0 241,151 -30,256 0,0 -1100,-648 -2163,-37z"/>
   </clipPath>
   <clipPath id="id48">
    <path d="M4869 2014c0,0 384,-1839 113,-1982 -271,-143 -797,1081 -1755,1211 0,0 218,318 504,458 287,139 151,365 151,365 0,0 445,317 490,490 0,0 158,-444 429,-392 0,0 -20,-104 68,-150z"/>
   </clipPath>
   <clipPath id="id49">
    <path d="M4338 3095l34 -539c0,0 34,-418 429,-392 396,27 366,162 373,230 8,68 -60,750 -207,871 -147,120 -373,150 -505,75 0,0 8,-166 -124,-245z"/>
   </clipPath>
    <clipPath id="id50">
     <path d="M5103 2940c-160,16 -427,-16 -438,-415 -5,-182 5,-291 21,-355 34,-6 73,-9 115,-6 396,27 366,162 373,230 5,42 -19,314 -71,546z"/>
    </clipPath>
    <clipPath id="id51">
     <path d="M4338 3095l34 -539c0,0 34,-418 429,-392 396,27 366,162 373,230 8,68 -60,750 -207,871 -147,120 -373,150 -505,75 0,0 8,-166 -124,-245z"/>
    </clipPath>
   <clipPath id="id52">
    <path d="M1564 2910c0,0 -124,159 -185,-79 -60,-237 17,-885 138,-879 121,5 173,1 202,77l26 135c0,0 -283,336 -181,746z"/>
   </clipPath>
   <clipPath id="id53">
    <path d="M1564 2910c0,0 -166,104 -158,255 5,116 -42,402 269,630 76,56 174,108 298,154 28,10 57,20 88,30 0,0 -278,-371 -135,-841 0,0 -309,27 -362,-228z"/>
   </clipPath>
   <clipPath id="id54">
    <path d="M2393 3500c0,0 361,162 576,26 0,0 0,366 -233,385 -234,19 -249,-189 -204,-332 0,0 -128,-22 -139,-79z"/>
   </clipPath>
   <clipPath id="id55">
    <path d="M2058 2147c0,0 -274,61 -184,599 0,0 65,195 209,178 145,-18 172,-289 193,-585 0,0 -23,-238 -218,-192z"/>
   </clipPath>
   <mask id="id56">
  <linearGradient id="id57" gradientUnits="userSpaceOnUse" x1="2026.97" y1="2818.67" x2="2056.74" y2="2684.76">
   <stop offset="0" style="stop-opacity:1; stop-color:white"/>
   <stop offset="1" style="stop-opacity:0; stop-color:white"/>
  </linearGradient>
    <rect style="fill:url(#id57)" x="1875" y="2499" width="334" height="506"/>
   </mask>
   <clipPath id="id58">
    <path d="M3438 2266c0,0 -231,34 -213,493 18,459 347,286 371,146 24,-140 200,-676 -158,-639z"/>
   </clipPath>
   <mask id="id59">
  <linearGradient id="id60" gradientUnits="userSpaceOnUse" x1="3302.79" y1="2930.65" x2="3410.56" y2="2809.23">
   <stop offset="0" style="stop-opacity:1; stop-color:white"/>
   <stop offset="1" style="stop-opacity:0; stop-color:white"/>
  </linearGradient>
    <rect style="fill:url(#id60)" x="3177" y="2617" width="360" height="506"/>
   </mask>
  <linearGradient id="id61" gradientUnits="userSpaceOnUse" x1="3365.55" y1="2833.5" x2="3519.03" y2="2487.5">
   <stop offset="0" style="stop-opacity:1; stop-color:#332C2B"/>
   <stop offset="1" style="stop-opacity:1; stop-color:#0195FF"/>
  </linearGradient>
  <linearGradient id="id62" gradientUnits="userSpaceOnUse" x1="2003.03" y1="2715.66" x2="2129.09" y2="2350.63">
   <stop offset="0" style="stop-opacity:1; stop-color:#332C2B"/>
   <stop offset="1" style="stop-opacity:1; stop-color:#006CB7"/>
  </linearGradient>
 </defs>
 <g id="Layer_x0020_1">
  <metadata id="CorelCorpID_0Corel-Layer"/>
  <path class="fil0" d="M4746 4590c0,0 28,650 88,854 60,203 301,957 -181,1062 -482,106 -515,-51 -515,-51l-133 -846 741 -1019z"/>
  <g style="clip-path:url(#id0)">
   <g id="_1014906592">
    <path id="1" class="fil1" d="M4962 5279c0,0 -258,933 -805,897 -547,-35 29,670 29,670l1643 -90 -867 -1477z"/>
   </g>
  </g>
  <path class="fil2 str0" d="M4746 4590c0,0 28,650 88,854 60,203 301,957 -181,1062 -482,106 -515,-51 -515,-51l-133 -846 741 -1019z"/>
  <path class="fil3" d="M2146 6754c0,0 154,374 742,431 588,57 809,-356 827,-401 17,-45 -835,191 -1569,-30z"/>
  <g style="clip-path:url(#id1)">
   <g id="_1014907264">
    <path id="1" class="fil4" d="M2146 6754c0,0 14,33 49,82 250,46 799,139 1007,106 233,-38 -119,91 -261,247 549,28 757,-362 774,-405 17,-45 -835,191 -1569,-30z"/>
   </g>
  </g>
  <path class="fil2 str1" d="M2146 6754c0,0 154,374 742,431 588,57 809,-356 827,-401 17,-45 -835,191 -1569,-30z"/>
  <path class="fil5" d="M2047 4112c0,0 -319,1502 -301,1966 17,465 -17,446 -8,543 5,55 112,58 308,99 299,62 766,176 1259,135 161,-14 292,-36 399,-65 438,-120 477,-359 453,-614 -30,-316 -32,-515 -32,-515l-81 -1673 -743 67 -586 384 -252 -332 -416 5z"/>
  <g style="clip-path:url(#id2)">
   <g id="_1014907528">
    <path id="1" class="fil3 str2" d="M2106 6841c0,0 15,-444 -482,-708l-38 671 520 37z"/>
    <path class="fil3" d="M3742 6954c0,0 -287,-444 75,-821 0,0 369,-347 505,-218l-30 798 -550 241z"/>
    <path class="fil6" d="M3542 6825c0,0 -127,-685 590,-971l8 121c0,0 -606,319 -374,796 0,0 -205,244 -224,54z"/>
   </g>
   <g style="clip-path:url(#id3)">
    <g>
     <path id="1" class="fil7" d="M4136 5919c0,0 -492,264 -509,584 -18,321 30,411 30,411l508 -207c0,0 140,-739 -29,-788z"/>
    </g>
   </g>
   <g style="clip-path:url(#id4)">
    <path class="fil2 str3" d="M3542 6825c0,0 -127,-685 590,-971l8 121c0,0 -606,319 -374,796 0,0 -205,244 -224,54z"/>
    <path class="fil6" d="M2261 6998c0,0 126,-686 -591,-972l-8 122c0,0 606,319 375,796 0,0 205,243 224,54z"/>
   </g>
   <g style="clip-path:url(#id5)">
    <g>
     <path id="1" class="fil7" d="M1563 6062c0,0 810,368 594,745 -216,378 -235,203 -235,203l-359 -948z"/>
    </g>
   </g>
   <g style="clip-path:url(#id6)">
    <path class="fil2 str3" d="M2261 6998c0,0 126,-686 -591,-972l-8 122c0,0 606,319 375,796 0,0 205,243 224,54z"/>
    <path class="fil8" d="M2396 4089c0,0 -458,1125 -147,1432 311,308 -662,536 -662,536l-244 -1675 704 -270 349 -23z"/>
   </g>
  </g>
  <path class="fil2 str0" d="M2047 4112c0,0 -319,1502 -301,1966 17,465 -17,446 -8,543 5,55 112,58 308,99 299,62 766,176 1259,135 161,-14 292,-36 399,-65 438,-120 477,-359 453,-614 -30,-316 -32,-515 -32,-515l-81 -1673 -743 67 -586 384 -252 -332 -416 5z"/>
  <path class="fil8 str0" d="M1935 5464c0,0 -121,-366 -98,-609 0,0 -65,-56 -75,-31 -10,25 -68,271 38,629l135 11z"/>
  <path class="fil9" d="M1834 4856c0,0 -284,61 -91,-430 193,-491 232,-476 232,-476l341 66c0,0 -98,158 -132,241 -34,83 -230,587 -350,599z"/>
  <g style="clip-path:url(#id7)">
   <g id="_1014909784">
    <path id="1" class="fil10" d="M2304 3772c0,0 -490,775 -467,1083 22,309 485,-292 485,-292 0,0 211,-748 -18,-791z"/>
   </g>
  </g>
  <path class="fil2 str0" d="M1834 4856c0,0 -284,61 -91,-430 193,-491 232,-476 232,-476l341 66c0,0 -98,158 -132,241 -34,83 -230,587 -350,599z"/>
  <path class="fil11 str0" d="M2257 4115c0,0 74,249 353,309l22 121 83 -106c0,0 584,-75 637,-297l-130 -13 -931 -73 -34 59z"/>
  <path class="fil9" d="M3568 4135c0,0 -446,547 -77,1015l279 -332c0,0 -4,-19 -8,-54 -12,-117 -20,-405 153,-713 0,0 -226,67 -347,84z"/>
  <g style="clip-path:url(#id8)">
   <g id="_1014910648">
    <path id="1" class="fil10" d="M3938 3962c0,0 -625,651 -151,1168 475,517 384,-746 384,-746l-233 -422z"/>
   </g>
  </g>
  <path class="fil2 str0" d="M3568 4135c0,0 -446,547 -77,1015l279 -332c0,0 -4,-19 -8,-54 -12,-117 -20,-405 153,-713 0,0 -226,67 -347,84z"/>
  <path class="fil3 str0" d="M2827 4609c0,0 335,-106 411,-181 0,0 -140,204 -411,181z"/>
  <path class="fil12 str0" d="M2541 5246l28 261 55 -13 -57 -260c0,0 -14,-40 -26,12z"/>
  <path class="fil6" d="M4250 5896c0,0 -49,-211 41,-238 91,-26 441,-162 441,-162 0,0 89,317 89,494 0,177 -194,305 -390,260 -196,-45 -181,-354 -181,-354z"/>
  <g style="clip-path:url(#id9)">
   <g id="_1014911704">
    <path id="1" class="fil1" d="M4194 5863c32,-11 165,320 489,440 0,0 -560,52 -489,-440z"/>
   </g>
  </g>
  <path class="fil2 str0" d="M4250 5896c0,0 -49,-211 41,-238 91,-26 441,-162 441,-162 0,0 89,317 89,494 0,177 -194,305 -390,260 -196,-45 -181,-354 -181,-354z"/>
  <path class="fil13" d="M4235 5613l482 -169c0,0 86,177 64,312 -22,136 -526,303 -561,72 -35,-231 15,-215 15,-215z"/>
  <g style="clip-path:url(#id10)">
   <g id="_1014912328">
    <path id="1" class="fil14" d="M4557 5444c0,0 254,245 70,446 -185,201 254,-90 254,-90l-111 -414 -213 58z"/>
   </g>
  </g>
  <path class="fil2 str0" d="M4235 5613l482 -169c0,0 86,177 64,312 -22,136 -526,303 -561,72 -35,-231 15,-215 15,-215z"/>
  <path class="fil6" d="M1830 6664c0,0 -152,307 -106,688 0,0 163,124 360,30 0,0 -4,-368 101,-544l-52 -79 -303 -95z"/>
  <g style="clip-path:url(#id11)">
   <g id="_1014912568">
    <path id="1" class="fil7" d="M1804 7394c66,25 168,42 280,-12 0,0 -4,-368 101,-544l-52 -79 -114 -35c-35,184 -110,544 -158,597 -21,23 -41,49 -57,73z"/>
   </g>
  </g>
  <path class="fil2 str4" d="M1830 6664c0,0 -152,307 -106,688 0,0 163,124 360,30 0,0 -4,-368 101,-544l-52 -79 -303 -95z"/>
  <path class="fil6" d="M3562 6914c0,0 132,205 123,487 0,0 169,167 403,-142 0,0 -68,-462 -156,-538l-226 72 -97 31 -47 90z"/>
  <g style="clip-path:url(#id12)">
   <g id="_1014912520">
    <path id="1" class="fil7" d="M3562 6914c0,0 132,205 123,487 0,0 124,121 305,-36 -5,-5 -10,-11 -16,-17 -161,-163 -200,-440 -209,-574l-156 50 -47 90z"/>
   </g>
  </g>
  <path class="fil2 str5" d="M3562 6914c0,0 132,205 123,487 0,0 169,167 403,-142 0,0 -68,-462 -156,-538l-226 72 -97 31 -47 90z"/>
  <path class="fil15" d="M1609 8121c0,0 -124,-390 3,-723 0,0 36,-49 112,-46 0,0 54,-127 -79,-88 -133,40 -260,340 -191,670 70,330 140,442 336,417 197,-24 240,-266 252,-445 12,-178 -9,-387 181,-424 0,0 53,-12 53,-75 0,-62 -158,1 -183,31 -25,29 -132,68 -160,483 -27,414 -269,339 -324,200z"/>
  <g style="clip-path:url(#id13)">
   <g id="_1014913504">
    <path id="1" class="fil16" d="M1671 8345c34,10 73,12 119,6 197,-24 240,-266 252,-445 12,-178 -9,-387 181,-424 0,0 53,-12 53,-75 0,-62 -158,1 -183,31 -25,29 -132,68 -160,483 -19,301 -153,344 -246,291 -13,37 -21,81 -16,133z"/>
   </g>
  </g>
  <path class="fil2 str6" d="M1609 8121c0,0 -124,-390 3,-723 0,0 36,-49 112,-46 0,0 54,-127 -79,-88 -133,40 -260,340 -191,670 70,330 140,442 336,417 197,-24 240,-266 252,-445 12,-178 -9,-387 181,-424 0,0 53,-12 53,-75 0,-62 -158,1 -183,31 -25,29 -132,68 -160,483 -27,414 -269,339 -324,200z"/>
  <path class="fil15" d="M3645 7514c0,0 -82,-46 -59,-93 22,-47 84,-25 111,19 28,44 108,118 175,450 0,0 12,166 27,186 14,20 105,74 184,-19 79,-92 57,-481 57,-481 0,0 -31,-231 -74,-274l22 -43c0,0 84,76 115,209 32,134 59,703 -146,769 -206,67 -252,-206 -264,-342 -12,-136 -79,-363 -148,-381z"/>
  <g style="clip-path:url(#id14)">
   <g id="_1014914560">
    <path id="1" class="fil2 str7" d="M3704 7416c0,0 -30,24 33,80 64,56 147,381 150,526 3,146 171,103 207,16 37,-88 105,-534 -34,-745 0,0 -184,234 -356,123z"/>
   </g>
  </g>
  <path class="fil2 str8" d="M3645 7514c0,0 -82,-46 -59,-93 22,-47 84,-25 111,19 28,44 108,118 175,450 0,0 12,166 27,186 14,20 105,74 184,-19 79,-92 57,-481 57,-481 0,0 -31,-231 -74,-274l22 -43c0,0 84,76 115,209 32,134 59,703 -146,769 -206,67 -252,-206 -264,-342 -12,-136 -79,-363 -148,-381z"/>
  <path class="fil16" d="M3645 7514c0,0 -82,-46 -59,-93 22,-47 84,-25 111,19 28,44 108,118 175,450 0,0 12,166 27,186 12,17 77,57 144,16 19,35 36,86 19,143 -2,1 -4,2 -5,2 -206,67 -252,-206 -264,-342 -12,-136 -79,-363 -148,-381z"/>
  <path class="fil3" d="M2084 7382c0,0 58,5 61,13 4,9 -155,47 -192,349 -37,302 -1,406 -197,487 -195,82 -202,-487 -202,-487 0,0 -2,-321 78,-365 80,-44 105,-18 105,-18 0,0 175,104 347,21z"/>
  <g style="clip-path:url(#id15)">
   <g id="_1014915040">
    <path id="1" class="fil4" d="M2084 7382c0,0 58,5 61,13 4,9 -155,47 -192,349 -37,302 -1,406 -197,487 -24,10 -45,10 -63,3 -19,-31 -27,-90 35,-82 62,7 82,-44 82,-44 53,-124 -12,-285 109,-554 30,-67 71,-117 116,-153 16,-4 33,-11 49,-19z"/>
   </g>
  </g>
  <path class="fil2 str9" d="M2084 7382c0,0 58,5 61,13 4,9 -155,47 -192,349 -37,302 -1,406 -197,487 -195,82 -202,-487 -202,-487 0,0 -2,-321 78,-365 80,-44 105,-18 105,-18 0,0 175,104 347,21z"/>
  <path class="fil5" d="M3389 8772c0,0 -42,6 -36,-267 6,-272 -49,-375 -25,-460 25,-85 51,-545 261,-582 0,0 15,59 95,64 0,0 83,155 119,451 37,296 194,287 291,240 97,-47 133,-301 131,-447 -3,-146 16,-265 -65,-414 0,0 134,48 195,299 60,251 45,621 239,924 0,0 14,218 -165,432 -179,215 -415,143 -415,143 0,0 -487,-70 -625,-383z"/>
  <g style="clip-path:url(#id16)">
   <g id="_1014882928">
    <path id="1" class="fil17" d="M3389 8772c0,0 -42,6 -36,-267 6,-272 -49,-375 -25,-460 25,-85 51,-545 261,-582 0,0 15,58 94,64 1,1 2,2 2,3 5,10 25,50 47,119 -2,200 -126,170 -123,530 3,360 142,776 46,856 -109,-59 -213,-143 -266,-263z"/>
   </g>
  </g>
  <path class="fil2 str10" d="M3389 8772c0,0 -42,6 -36,-267 6,-272 -49,-375 -25,-460 25,-85 51,-545 261,-582 0,0 15,59 95,64 0,0 83,155 119,451 37,296 194,287 291,240 97,-47 133,-301 131,-447 -3,-146 16,-265 -65,-414 0,0 134,48 195,299 60,251 45,621 239,924 0,0 14,218 -165,432 -179,215 -415,143 -415,143 0,0 -487,-70 -625,-383z"/>
  <path class="fil5" d="M1429 7674c8,1 -145,825 -315,1001 0,0 -18,160 128,330 145,169 375,230 593,121 218,-109 600,-521 624,-636 24,-115 -23,-1061 -183,-1083 0,0 19,72 -141,114 0,0 -102,47 -93,385 8,339 -173,421 -173,421 0,0 -406,245 -440,-653z"/>
  <g style="clip-path:url(#id17)">
   <g id="_1014883000">
    <path id="1" class="fil17" d="M2312 8708c80,-93 138,-176 147,-218 24,-115 -23,-1061 -183,-1083 0,0 19,72 -141,114 0,0 -20,9 -41,48 -18,163 63,1094 118,1141 16,14 54,10 100,-2z"/>
   </g>
  </g>
  <path class="fil2 str11" d="M1429 7674c8,1 -145,825 -315,1001 0,0 -18,160 128,330 145,169 375,230 593,121 218,-109 600,-521 624,-636 24,-115 -23,-1061 -183,-1083 0,0 19,72 -141,114 0,0 -102,47 -93,385 8,339 -173,421 -173,421 0,0 -406,245 -440,-653z"/>
  <path class="fil15" d="M1081 8902c0,0 -21,245 412,393 433,149 917,-527 938,-593 22,-67 16,-141 -33,-102 -48,38 -376,560 -821,579 0,0 -310,-27 -430,-328l-30 -111 -36 162z"/>
  <g style="clip-path:url(#id18)">
   <g id="_1014883456">
    <path id="1" class="fil16" d="M2320 8865c65,-80 106,-145 111,-163 22,-67 16,-141 -33,-102 -15,12 -59,74 -127,153 0,41 12,81 49,112z"/>
   </g>
  </g>
  <path class="fil2 str12" d="M1081 8902c0,0 -21,245 412,393 433,149 917,-527 938,-593 22,-67 16,-141 -33,-102 -48,38 -376,560 -821,579 0,0 -310,-27 -430,-328l-30 -111 -36 162z"/>
  <path class="fil3" d="M924 9649c0,0 -36,-596 157,-732 0,0 30,294 492,397 0,0 426,66 858,-612 0,0 146,708 -42,1117 0,0 -182,-179 -285,-124 0,0 61,157 13,245 -49,88 -312,103 -370,27 0,0 -45,-269 -169,-302 0,0 -106,90 -76,345 0,0 -61,112 -336,-27l-55 -28c0,0 76,-293 -100,-387 0,0 -30,9 -87,81z"/>
  <g style="clip-path:url(#id19)">
   <g id="_1014884368">
    <path id="1" class="fil4" d="M1500 10013c-13,17 -87,94 -334,-30l-55 -28c0,0 48,-186 -21,-309 39,11 79,43 95,124 33,175 56,217 184,209 67,-5 107,14 131,34z"/>
    <path class="fil4" d="M2109 9708c13,40 48,160 8,232 -49,88 -312,103 -370,27 0,0 -2,-12 -6,-31 74,28 188,56 255,-6 106,-97 108,-235 108,-235l5 13z"/>
   </g>
  </g>
  <path class="fil2 str13" d="M924 9649c0,0 -36,-596 157,-732 0,0 30,294 492,397 0,0 426,66 858,-612 0,0 146,708 -42,1117 0,0 -182,-179 -285,-124 0,0 61,157 13,245 -49,88 -312,103 -370,27 0,0 -45,-269 -169,-302 0,0 -106,90 -76,345 0,0 -61,112 -336,-27l-55 -28c0,0 76,-293 -100,-387 0,0 -30,9 -87,81z"/>
  <path class="fil4 str14" d="M2436 8727c24,128 120,729 -47,1092 0,0 -57,-56 -125,-96 20,-166 78,-429 93,-707 6,-129 40,-222 79,-289z"/>
  <path class="fil15" d="M775 9970c0,0 212,52 336,-15 0,0 76,-293 -100,-387 0,0 -284,203 -236,402z"/>
  <g style="clip-path:url(#id20)">
   <g id="_1014884992">
    <path id="1" class="fil16" d="M775 9970c0,0 212,52 336,-15 0,0 20,-75 16,-161 -97,-51 -190,124 -187,18 1,-50 -19,-103 -39,-146 -74,78 -153,192 -126,304z"/>
   </g>
  </g>
  <path class="fil2 str15" d="M775 9970c0,0 212,52 336,-15 0,0 76,-293 -100,-387 0,0 -284,203 -236,402z"/>
  <path class="fil15" d="M1702 10134c0,0 -161,-30 -200,-124 0,0 -36,-242 76,-345 0,0 136,27 169,302 0,0 61,137 -45,167z"/>
  <g style="clip-path:url(#id21)">
   <g id="_1014886048">
    <path id="1" class="fil16" d="M1702 10134c0,0 -161,-30 -200,-124 0,0 -4,-25 -5,-62 73,15 127,18 127,18 27,-71 59,-116 90,-144 14,38 26,86 33,145 0,0 61,137 -45,167z"/>
   </g>
  </g>
  <path class="fil2 str16" d="M1702 10134c0,0 -161,-30 -200,-124 0,0 -36,-242 76,-345 0,0 136,27 169,302 0,0 61,137 -45,167z"/>
  <path class="fil15" d="M2117 9940c0,0 184,73 293,0 0,0 -42,-278 -306,-245 0,0 79,176 13,245z"/>
  <g style="clip-path:url(#id22)">
   <g id="_1014887104">
    <path id="1" class="fil16" d="M2117 9940c0,0 184,73 293,0 0,0 -30,-196 -195,-239 -3,30 35,75 -16,90 -22,6 -42,15 -59,23 7,47 5,96 -23,126z"/>
   </g>
  </g>
  <path class="fil2 str17" d="M2117 9940c0,0 184,73 293,0 0,0 -42,-278 -306,-245 0,0 79,176 13,245z"/>
  <path class="fil15" d="M3389 8772c0,0 -41,97 56,242 97,145 560,288 754,288 194,0 436,-318 445,-409 9,-91 -57,-220 -57,-220 0,0 -49,419 -479,494 0,0 -557,-62 -719,-395z"/>
  <g style="clip-path:url(#id23)">
   <g id="_1014886552">
    <path id="1" class="fil16" d="M3381 8816c-3,41 6,111 64,198 16,24 43,49 77,72 41,-41 94,-7 45,-113l0 0c-51,-37 -98,-80 -135,-130 -16,-10 -34,-19 -51,-27z"/>
   </g>
  </g>
  <path class="fil2 str10" d="M3389 8772c0,0 -41,97 56,242 97,145 560,288 754,288 194,0 436,-318 445,-409 9,-91 -57,-220 -57,-220 0,0 -49,419 -479,494 0,0 -557,-62 -719,-395z"/>
  <path class="fil3" d="M3300 9922c0,0 -167,-643 81,-1072 0,0 12,216 273,309 260,94 478,151 580,139 101,-12 349,-226 410,-405 0,0 145,179 124,727l-169 -7c0,0 -52,179 15,337 0,0 -194,196 -415,148 0,0 -64,-306 -118,-312 -55,-6 -179,221 -158,342 0,0 -245,43 -424,-63 0,0 -15,-209 -57,-209 -42,0 -46,12 -142,66z"/>
  <g style="clip-path:url(#id24)">
   <g id="_1014887752">
    <path id="1" class="fil4" d="M3300 9922c0,0 -167,-643 81,-1072 0,0 8,135 139,237 -30,33 -53,109 -20,321 79,497 124,636 242,681 83,32 138,-30 184,-44 -5,30 -7,59 -3,83 0,0 -245,43 -424,-63 0,0 -15,-209 -57,-209 -42,0 -46,12 -142,66zm1304 2c3,9 6,17 10,26 0,0 -194,196 -415,148 0,0 -3,-15 -8,-37 140,-33 317,-94 413,-137z"/>
   </g>
  </g>
  <path class="fil2 str18" d="M3300 9922c0,0 -167,-643 81,-1072 0,0 12,216 273,309 260,94 478,151 580,139 101,-12 349,-226 410,-405 0,0 145,179 124,727l-169 -7c0,0 -52,179 15,337 0,0 -194,196 -415,148 0,0 -64,-306 -118,-312 -55,-6 -179,221 -158,342 0,0 -245,43 -424,-63 0,0 -15,-209 -57,-209 -42,0 -46,12 -142,66z"/>
  <path class="fil16" d="M4983 10025c0,0 -260,18 -369,-75 0,0 -64,-164 -15,-337 0,0 366,-60 384,412z"/>
  <g style="clip-path:url(#id25)">
   <g id="_1014887584">
    <path id="1" class="fil15" d="M4683 9614c81,10 201,52 262,208 -71,-22 -139,-43 -160,-52 -35,-14 -78,-101 -102,-156z"/>
   </g>
  </g>
  <path class="fil2 str19" d="M4983 10025c0,0 -260,18 -369,-75 0,0 -64,-164 -15,-337 0,0 366,-60 384,412z"/>
  <path class="fil16" d="M3987 10258c0,0 -102,-61 -64,-192 38,-130 58,-219 158,-280 0,0 121,127 115,379 0,0 -103,118 -209,93z"/>
  <g style="clip-path:url(#id26)">
   <g id="_1014888640">
    <path id="1" class="fil15" d="M4091 9799c20,25 61,87 86,186 -62,33 -122,39 -122,39 -12,-85 11,-167 36,-225z"/>
   </g>
  </g>
  <path class="fil2 str20" d="M3987 10258c0,0 -102,-61 -64,-192 38,-130 58,-219 158,-280 0,0 121,127 115,379 0,0 -103,118 -209,93z"/>
  <path class="fil16 str21" d="M3221 10098c0,0 133,70 278,-33 0,0 -6,-170 -57,-209 0,0 -200,27 -221,242z"/>
  <path class="fil3" d="M3709 7428c4,-7 38,42 120,17 82,-25 226,-146 226,-146 0,0 69,109 83,261 13,153 13,339 -16,434 -28,96 -163,161 -219,65 -56,-95 54,-177 -194,-631z"/>
  <g style="clip-path:url(#id27)">
   <g id="_1014889000">
    <path id="1" class="fil4" d="M3709 7428c4,-6 32,34 99,22 52,74 134,216 140,375 9,233 50,208 64,242 4,10 5,22 4,34 -43,13 -87,3 -113,-42 -56,-95 54,-177 -194,-631z"/>
   </g>
  </g>
  <path class="fil2 str22" d="M3709 7428c4,-7 38,42 120,17 82,-25 226,-146 226,-146 0,0 69,109 83,261 13,153 13,339 -16,434 -28,96 -163,161 -219,65 -56,-95 54,-177 -194,-631z"/>
  <path class="fil15" d="M3392 9954c0,0 -46,19 -64,76 -18,58 82,0 64,-76z"/>
  <path class="fil3 str0" d="M2183 4372c0,0 79,150 290,252 0,0 -241,-41 -290,-252z"/>
  <path class="fil3" d="M3287 4136c0,0 -335,238 -591,167 -256,-72 -301,-214 -301,-214l-104 -33 -36 53c0,0 100,256 280,293l75 22 22 121 83 -106c0,0 566,-85 637,-297 0,0 -68,-5 -65,-6z"/>
  <g style="clip-path:url(#id28)">
   <g id="_1014889648">
    <path id="1" class="fil4" d="M2347 3990c0,0 -38,373 314,378 353,6 625,-127 685,-265 60,-137 -673,-117 -673,-117l-326 4z"/>
   </g>
  </g>
  <path class="fil2 str23" d="M3287 4136c0,0 -335,238 -591,167 -256,-72 -301,-214 -301,-214l-104 -33 -36 53c0,0 100,256 280,293l75 22 22 121 83 -106c0,0 566,-85 637,-297 0,0 -68,-5 -65,-6z"/>
  <path class="fil5" d="M1687 4606c0,0 -325,-69 -558,-236 -138,-98 -286,-283 -326,-371l401 -628c0,0 493,396 556,539 0,0 -74,404 -73,696z"/>
  <g style="clip-path:url(#id29)">
   <g id="_1014890920">
    <path id="1" class="fil8" d="M1710 4138c0,0 -401,-413 -407,-579 -5,-167 191,-133 191,-133l373 366c0,0 -33,313 -157,346z"/>
    <g>
     <path class="fil15" d="M1440 3639c0,0 78,-139 408,170 0,0 -120,212 -159,299 0,0 -299,-215 -249,-469z"/>
    </g>
    <g style="clip-path:url(#id30)">
     <g>
      <path id="1" class="fil16" d="M1486 3610c53,-11 161,11 362,199 0,0 -32,57 -69,124 -86,-77 -219,-203 -293,-323z"/>
     </g>
    </g>
    <g style="clip-path:url(#id31)">
     <path class="fil2 str24" d="M1440 3639c0,0 78,-139 408,170 0,0 -120,212 -159,299 0,0 -299,-215 -249,-469z"/>
     <path class="fil2 str25" d="M1643 4052c-9,10 79,-229 144,-269"/>
     <path class="fil2 str26" d="M1592 4021c0,0 32,-211 160,-296"/>
     <path class="fil2 str27" d="M1549 3973c0,0 49,-276 151,-271"/>
     <path class="fil2 str28" d="M1508 3917c0,0 60,-282 124,-258"/>
     <path class="fil2 str29" d="M1591 3626c0,0 -59,7 -133,195"/>
    </g>
   </g>
  </g>
  <path class="fil2 str0" d="M1687 4606c0,0 -325,-69 -558,-236 -138,-98 -286,-283 -326,-371l401 -628c0,0 493,396 556,539 0,0 -74,404 -73,696z"/>
  <path class="fil18 str30" d="M799 4025c0,0 84,131 146,158 155,66 422,-672 416,-681l-37 -55c0,0 -106,223 -142,359 -36,136 -302,377 -383,219z"/>
  <path class="fil19 str31" d="M1054 2730c0,0 -748,774 -703,932 46,158 744,-291 759,-352 16,-61 118,-728 118,-728l-174 148z"/>
  <path class="fil3" d="M837 4073c-270,-357 -532,-710 -565,-932 -64,-432 390,-791 689,-602 201,127 353,514 379,945 0,0 -26,14 -49,60 -60,114 -234,726 -454,529z"/>
  <g style="clip-path:url(#id32)">
   <g id="_1014892768">
    <path id="1" class="fil4" d="M1279 3841c0,0 119,-373 -221,-1047 -99,-195 -274,-335 -243,-349 77,-34 586,387 586,387 0,0 323,775 -122,1009z"/>
   </g>
  </g>
  <path class="fil2 str0" d="M837 4073c-270,-357 -532,-710 -565,-932 -64,-432 390,-791 689,-602 201,127 353,514 379,945 0,0 -26,14 -49,60 -60,114 -234,726 -454,529z"/>
  <path class="fil6 str0" d="M973 2231c33,36 95,430 -45,416 -141,-14 -65,-379 45,-416z"/>
  <path class="fil6 str0" d="M740 2558c0,0 -165,-142 -198,-359 -57,-89 -209,249 -19,434 190,186 217,-75 217,-75z"/>
  <path class="fil6 str0" d="M181 2487c0,0 120,207 290,285 171,77 -109,253 -281,58 -171,-196 -47,-425 -9,-343z"/>
  <path class="fil6 str0" d="M42 2919c0,0 126,131 293,101 168,-31 58,227 -112,192 -171,-34 -242,-260 -181,-293z"/>
  <path class="fil20 str32" d="M351 3662c0,0 418,153 877,-1080 0,0 302,969 499,1049 197,81 -112,720 -51,1058 61,338 -1284,-508 -1325,-1027z"/>
  <path class="fil3" d="M1687 4606c0,0 -313,-494 -12,-811 0,0 177,118 300,155 0,0 -198,316 -288,656z"/>
  <g style="clip-path:url(#id33)">
   <g id="_1014894592">
    <path id="1" class="fil4" d="M1796 4977c0,0 -184,-641 34,-961 219,-320 403,79 403,79l-410 712 -32 152 5 18z"/>
   </g>
  </g>
  <path class="fil2 str0" d="M1687 4606c0,0 -313,-494 -12,-811 0,0 177,118 300,155 0,0 -198,316 -288,656z"/>
  <path class="fil20 str32" d="M917 8556c0,0 574,217 1686,277 12,-260 32,-567 69,-753 0,0 16,432 87,760 602,24 1347,1 2232,-121 0,0 -172,-3679 -947,-4731l-2069 -38c0,0 -951,907 -1058,4606z"/>
  <path class="fil21 str31" d="M1973 3949l1868 123c-629,1363 -2358,883 -1868,-123z"/>
  <path class="fil22 str31" d="M2100 3767l1632 216c24,3 -454,747 -920,778 -425,28 -971,-108 -712,-994z"/>
  <path class="fil21" d="M3424 4044c0,0 -221,840 -825,1578l-207 -172c0,0 522,-757 573,-1269 0,0 154,-228 273,-264 111,-33 188,125 186,127z"/>
  <g style="clip-path:url(#id34)">
   <g id="_1014896152">
    <path id="1" class="fil22" d="M3331 4053c-18,32 -162,839 -798,1514l-87 -72c0,0 554,-704 609,-1362l215 -212 61 132z"/>
   </g>
  </g>
  <path class="fil2 str31" d="M3424 4044c0,0 -221,840 -825,1578l-207 -172c0,0 522,-757 573,-1269 0,0 154,-228 273,-264 111,-33 188,125 186,127z"/>
  <path class="fil21" d="M2120 3959c0,0 -167,616 6,1553l265 -51c0,0 -92,-915 110,-1388 0,0 -383,-121 -381,-114z"/>
  <g style="clip-path:url(#id35)">
   <g id="_1014896992">
    <path id="1" class="fil22" d="M2213 3917c-1,37 -234,681 -2,1579l111 -22c0,0 -143,-891 126,-1494l-235 -63z"/>
   </g>
  </g>
  <path class="fil2 str31" d="M2120 3959c0,0 -167,616 6,1553l265 -51c0,0 -92,-915 110,-1388 0,0 -383,-121 -381,-114z"/>
  <path class="fil5" d="M3222 4129c0,0 821,151 1213,-535 0,0 109,-332 -97,-499 0,0 -125,-97 -393,101 0,0 -88,127 -417,70 0,0 112,517 -306,863z"/>
  <g style="clip-path:url(#id36)">
   <g id="_1014896656">
    <path id="1" class="fil8" d="M4403 2887c-52,-3 179,775 -773,1139 -953,363 -748,287 -748,213 1,-75 1177,53 1177,53l933 -619 -589 -786z"/>
   </g>
  </g>
  <path class="fil2 str0" d="M3222 4129c0,0 821,151 1213,-535 0,0 109,-332 -97,-499 0,0 -125,-97 -393,101 0,0 -88,127 -417,70 0,0 112,517 -306,863z"/>
  <path class="fil6" d="M2136 3994c0,0 532,263 1086,135 0,0 316,-488 111,-907 0,0 -264,-152 -404,-161 -141,-10 -190,-84 -811,68 0,0 -272,247 18,865z"/>
  <g style="clip-path:url(#id37)">
   <g id="_1014897712">
    <path id="1" class="fil7" d="M2693 4248c0,0 -416,-161 -500,-604 -85,-442 206,-786 225,-719 20,68 -700,263 -639,436 61,173 324,883 534,937 210,55 380,-50 380,-50z"/>
   </g>
  </g>
  <path class="fil2 str0" d="M2136 3994c0,0 532,263 1086,135 0,0 316,-488 111,-907 0,0 -264,-152 -404,-161 -141,-10 -190,-84 -811,68 0,0 -272,247 18,865z"/>
  <path class="fil3" d="M2136 3994c0,0 -260,-550 -18,-865l-192 9c0,0 -105,260 -2,574 28,86 71,176 137,267l75 15z"/>
  <g style="clip-path:url(#id38)">
   <g id="_1014900160">
    <path id="1" class="fil4" d="M2059 2997c0,0 -230,584 77,997 307,412 210,-756 210,-756l-287 -241z"/>
   </g>
  </g>
  <path class="fil2 str0" d="M2136 3994c0,0 -260,-550 -18,-865l-192 9c0,0 -105,260 -2,574 28,86 71,176 137,267l75 15z"/>
  <path class="fil3" d="M3222 4129c0,0 405,-320 306,-863l-195 -44c0,0 197,358 -111,907z"/>
  <g style="clip-path:url(#id39)">
   <g id="_1014900208">
    <path id="1" class="fil4" d="M3178 4011c0,0 302,-34 332,-916 30,-882 -577,87 -577,87 0,0 469,361 245,829z"/>
   </g>
  </g>
  <path class="fil2 str0" d="M3222 4129c0,0 405,-320 306,-863l-195 -44c0,0 197,358 -111,907z"/>
  <path class="fil3" d="M4716 4659c0,0 -72,-257 -384,-197 -313,60 -570,302 -570,302 0,0 -32,-236 36,-428 0,0 417,-609 854,-605 437,4 64,928 64,928z"/>
  <g style="clip-path:url(#id40)">
   <g id="_1014905704">
    <path id="1" class="fil4" d="M4595 3538c0,0 -660,716 -658,1093 2,376 -879,241 -879,241 0,0 964,-1364 1537,-1334z"/>
   </g>
  </g>
  <path class="fil2 str0" d="M4716 4659c0,0 -72,-257 -384,-197 -313,60 -570,302 -570,302 0,0 -32,-236 36,-428 0,0 417,-609 854,-605 437,4 64,928 64,928z"/>
  <path class="fil5" d="M3795 4731c0,0 59,580 -158,855 0,0 794,-502 1033,-343 0,0 138,-647 -50,-954 0,0 -235,-344 -825,442z"/>
  <g style="clip-path:url(#id41)">
   <g id="_883403496">
    <path id="1" class="fil8" d="M3947 4338c0,0 328,578 -38,1094 -367,516 -460,91 -460,91l498 -1185z"/>
    <g>
     <path class="fil15" d="M3942 5101c0,0 -145,63 -220,-383 0,0 193,-185 276,-230 0,0 200,454 -56,613z"/>
    </g>
    <g style="clip-path:url(#id42)">
     <g>
      <path id="1" class="fil16" d="M3889 5095c-49,-23 -121,-106 -167,-377 0,0 61,-26 130,-57 22,113 51,295 37,434z"/>
     </g>
    </g>
    <g style="clip-path:url(#id43)">
     <path class="fil2 str33" d="M3942 5101c0,0 -145,63 -220,-383 0,0 193,-185 276,-230 0,0 200,454 -56,613z"/>
     <path class="fil2 str34" d="M4036 4597c14,-3 -205,187 -281,178"/>
     <path class="fil2 str35" d="M4057 4679c0,0 -156,174 -309,164"/>
     <path class="fil2 str36" d="M4064 4757c0,0 -211,202 -289,135"/>
     <path class="fil2 str37" d="M4073 4820c0,0 -234,207 -270,148"/>
     <path class="fil2 str38" d="M3829 5044c0,0 84,8 224,-125"/>
    </g>
   </g>
  </g>
  <path class="fil2 str0" d="M3795 4731c0,0 59,580 -158,855 0,0 794,-502 1033,-343 0,0 138,-647 -50,-954 0,0 -235,-344 -825,442z"/>
  <path class="fil19 str39" d="M3080 6220c-22,9 442,868 655,1014 0,0 -84,-705 -764,-1263l109 249z"/>
  <path class="fil3" d="M3637 5586c0,0 -179,249 -602,585 -422,335 -182,1125 533,921 715,-203 1102,-1849 1102,-1849 0,0 -189,-193 -1033,343z"/>
  <g style="clip-path:url(#id44)">
   <g id="_883373160">
    <path id="1" class="fil4" d="M4140 4959c0,0 -439,1252 -1423,1799 -984,547 -274,-770 -274,-770l1697 -1029z"/>
   </g>
  </g>
  <path class="fil2 str0" d="M3637 5586c0,0 -179,249 -602,585 -422,335 -182,1125 533,921 715,-203 1102,-1849 1102,-1849 0,0 -189,-193 -1033,343z"/>
  <path class="fil6 str0" d="M2542 6159c51,-31 511,-65 521,93 11,158 -503,47 -521,-93z"/>
  <path class="fil6 str0" d="M2983 6625c0,0 -312,159 -418,140 -107,-18 135,257 431,56 295,-201 -13,-196 -13,-196z"/>
  <path class="fil6 str0" d="M2719 7111c0,0 227,-76 337,-228 110,-151 227,158 0,287 -226,129 -425,-38 -337,-59z"/>
  <path class="fil6 str0" d="M3114 7334c0,0 154,-97 158,-267 4,-170 234,-11 166,149 -68,159 -304,184 -324,118z"/>
  <path class="fil6 str0" d="M3499 5747c0,0 542,-494 1171,-504 0,0 -336,-155 -1015,320 0,0 -203,107 -156,184z"/>
  <path class="fil3" d="M3945 3196l393 -101 131 -416 -113 -298 -758 -591 -1055 -98c0,0 -940,196 -883,196 57,0 -2,384 -2,384l311 -185c0,0 567,-247 1019,-186 452,62 1567,514 957,1295z"/>
  <g style="clip-path:url(#id45)">
   <g id="_883376184">
    <path id="1" class="fil4" d="M3995 1992c0,0 581,670 106,1303 -474,633 267,211 309,218 42,8 196,-776 196,-776 0,0 -173,-844 -611,-745z"/>
   </g>
  </g>
  <path class="fil2 str0" d="M3945 3196l393 -101 131 -416 -113 -298 -758 -591 -1055 -98c0,0 -940,196 -883,196 57,0 -2,384 -2,384l311 -185c0,0 567,-247 1019,-186 452,62 1567,514 957,1295z"/>
  <path class="fil5" d="M2667 530c0,0 699,-260 1477,224 0,0 -441,562 -917,489 0,0 -536,-465 -560,-713z"/>
  <g style="clip-path:url(#id46)">
   <g id="_883376856">
    <path id="1" class="fil8" d="M3760 482c0,0 -874,-45 -859,128 15,174 475,731 475,731l-362 0 -896 -701 376 -587 890 52 376 377z"/>
   </g>
  </g>
  <path class="fil2 str0" d="M2667 530c0,0 699,-260 1477,224 0,0 -441,562 -917,489 0,0 -536,-465 -560,-713z"/>
  <path class="fil23" d="M1719 2029c0,0 -60,-1266 385,-1937 0,0 105,-234 391,188 287,422 844,1236 1417,1530 0,0 241,151 -30,256 0,0 -1100,-648 -2163,-37z"/>
  <g style="clip-path:url(#id47)">
   <g id="_883376904">
    <path id="1" class="fil24" d="M2434 -369c0,0 -410,1308 109,2061 520,752 298,531 298,531l-1161 36 -421 -1257c0,0 828,-1417 1175,-1371z"/>
   </g>
  </g>
  <path class="fil2 str0" d="M1719 2029c0,0 -60,-1266 385,-1937 0,0 105,-234 391,188 287,422 844,1236 1417,1530 0,0 241,151 -30,256 0,0 -1100,-648 -2163,-37z"/>
  <path class="fil23" d="M4869 2014c0,0 384,-1839 113,-1982 -271,-143 -797,1081 -1755,1211 0,0 218,318 504,458 287,139 151,365 151,365 0,0 445,317 490,490 0,0 158,-444 429,-392 0,0 -20,-104 68,-150z"/>
  <g style="clip-path:url(#id48)">
   <g id="_883378344">
    <path id="1" class="fil24" d="M3233 1077c0,0 143,309 392,460 248,151 298,187 386,415 87,228 495,354 533,520 0,0 -272,200 -226,203 46,3 -690,-727 -690,-727l-621 -690 226 -181z"/>
   </g>
  </g>
  <path class="fil2 str0" d="M4869 2014c0,0 384,-1839 113,-1982 -271,-143 -797,1081 -1755,1211 0,0 218,318 504,458 287,139 151,365 151,365 0,0 445,317 490,490 0,0 158,-444 429,-392 0,0 -20,-104 68,-150z"/>
  <path class="fil5" d="M4338 3095l34 -539c0,0 34,-418 429,-392 396,27 366,162 373,230 8,68 -60,750 -207,871 -147,120 -373,150 -505,75 0,0 8,-166 -124,-245z"/>
  <g style="clip-path:url(#id49)">
   <g id="_883377888">
    <path id="1" class="fil8" d="M5219 2917c0,0 -539,177 -554,-392 -15,-569 112,-423 112,-423l389 88 72 377 -19 350z"/>
   </g>
   <g style="clip-path:url(#id50)">
    <g>
     <path id="2" class="fil25" d="M4947 2050c0,0 126,292 21,533 -106,241 -23,460 -23,460l422 -158 -15 -618c0,0 -166,-234 -405,-217z"/>
    </g>
   </g>
   <g style="clip-path:url(#id51)">
    <path class="fil2" d="M5219 2917c0,0 -539,177 -554,-392 -15,-569 112,-423 112,-423l389 88 72 377 -19 350z"/>
    <path class="fil3 str3" d="M5276 2951c0,0 -618,90 -648,-136 -31,-226 52,-813 52,-813l94 37c0,0 -199,683 19,807 219,123 513,30 513,30l-30 75z"/>
    <path class="fil8" d="M4250 2909c0,0 166,346 641,241 474,-106 497,-309 497,-309 0,0 -467,836 -844,753 -377,-83 -294,-685 -294,-685z"/>
   </g>
  </g>
  <path class="fil2 str0" d="M4338 3095l34 -539c0,0 34,-418 429,-392 396,27 366,162 373,230 8,68 -60,750 -207,871 -147,120 -373,150 -505,75 0,0 8,-166 -124,-245z"/>
  <path class="fil5 str0" d="M5054 2059c0,0 -49,-74 -185,-45 0,0 -96,22 -68,150 0,0 218,28 261,52 0,0 45,-127 -8,-157z"/>
  <path class="fil8 str0" d="M5442 111c0,0 -45,-38 -113,249 -68,286 -460,1654 -460,1654l185 45c0,0 440,-1948 388,-1948z"/>
  <path class="fil8 str0" d="M1569 1850c0,0 -75,-1492 121,-1666 0,0 -26,1583 -51,1656l-70 10z"/>
  <path class="fil5 str0" d="M1517 1952c0,0 -20,-78 52,-102 73,-25 93,11 95,73 2,62 -32,19 -147,29z"/>
  <path class="fil5" d="M1564 2910c0,0 -124,159 -185,-79 -60,-237 17,-885 138,-879 121,5 173,1 202,77l26 135c0,0 -283,336 -181,746z"/>
  <g style="clip-path:url(#id52)">
   <g id="_883380072">
    <path id="1" class="fil8" d="M1183 2449c0,0 165,425 361,216 197,-209 212,-209 212,-209l-148 575 -425 89 0 -671z"/>
   </g>
  </g>
  <path class="fil2 str0" d="M1564 2910c0,0 -124,159 -185,-79 -60,-237 17,-885 138,-879 121,5 173,1 202,77l26 135c0,0 -283,336 -181,746z"/>
  <path class="fil26 str0" d="M1564 2910c-21,-220 -75,-476 181,-746 255,-269 1043,-327 1285,-252 241,75 776,166 1032,467 256,302 30,791 -219,874 -248,83 -718,-55 -929,-168 -269,-144 -1304,307 -1350,-175z"/>
  <path class="fil5 str0" d="M1652 2888c-20,-206 -70,-445 168,-695 239,-251 973,-306 1198,-236 225,70 724,155 963,436 238,281 28,737 -204,815 -92,30 -205,23 -320,-1 -174,-37 -355,-114 -481,-161 -112,-41 -240,-48 -372,-40 -440,29 -919,228 -952,-118z"/>
  <path class="fil5" d="M1564 2910c0,0 -166,104 -158,255 5,116 -42,402 269,630 76,56 174,108 298,154 28,10 57,20 88,30 0,0 -278,-371 -135,-841 0,0 -309,27 -362,-228z"/>
  <g style="clip-path:url(#id53)">
   <g id="_883380840">
    <path id="1" class="fil8" d="M1688 2860c0,0 -222,399 -124,640 98,241 422,486 493,520 72,34 -646,70 -646,70l-363 -782 226 -403 414 -45z"/>
   </g>
  </g>
  <path class="fil2 str0" d="M1564 2910c0,0 -166,104 -158,255 5,116 -42,402 269,630 76,56 174,108 298,154 28,10 57,20 88,30 0,0 -278,-371 -135,-841 0,0 -309,27 -362,-228z"/>
  <path class="fil12" d="M2393 3500c0,0 361,162 576,26 0,0 0,366 -233,385 -234,19 -249,-189 -204,-332 0,0 -128,-22 -139,-79z"/>
  <g style="clip-path:url(#id54)">
   <g id="_883381920">
    <path id="1" class="fil27 str2" d="M2528 3753c0,0 113,-59 179,-36 66,22 49,58 49,58 0,0 117,-61 156,6 0,0 -46,213 -150,188 -104,-24 -273,-68 -273,-68 0,0 -30,-135 39,-148z"/>
   </g>
  </g>
  <path class="fil2 str0" d="M2393 3500c0,0 361,162 576,26 0,0 0,366 -233,385 -234,19 -249,-189 -204,-332 0,0 -128,-22 -139,-79z"/>
  <path class="fil28" d="M2058 2147c0,0 -274,61 -184,599 0,0 65,195 209,178 145,-18 172,-289 193,-585 0,0 -23,-238 -218,-192z"/>
  <g style="clip-path:url(#id55)">
   <g id="_883382400">
    <path id="1" class="fil5" d="M2127 2143c0,0 -189,35 -157,195 31,159 284,96 306,1 22,-95 -97,-209 -149,-196z"/>
   </g>
  </g>
  <path class="fil2 str40" d="M2058 2147c0,0 -274,61 -184,599 0,0 65,195 209,178 145,-18 172,-289 193,-585 0,0 -23,-238 -218,-192z"/>
  <path class="fil5 str41" style="mask:url(#id56)" d="M2060 2592l-91 273c0,0 100,85 146,24l-55 -297z"/>
  <path class="fil29" d="M2183 2487c0,0 -15,106 90,95 104,-12 65,-109 65,-109 0,0 -73,-101 -155,14z"/>
  <path class="fil30" d="M3438 2266c0,0 -231,34 -213,493 18,459 347,286 371,146 24,-140 200,-676 -158,-639z"/>
  <g style="clip-path:url(#id58)">
   <g id="_883383408">
    <path id="1" class="fil5" d="M3438 2266c0,0 -138,143 -19,233 119,90 245,-6 233,-82 -11,-77 -76,-180 -214,-151z"/>
   </g>
  </g>
  <path class="fil2 str42" d="M3438 2266c0,0 -231,34 -213,493 18,459 347,286 371,146 24,-140 200,-676 -158,-639z"/>
  <path class="fil5 str43" style="mask:url(#id59)" d="M3270 2936c0,0 38,81 82,93l91 -318c0,0 -110,79 -173,225z"/>
  <path class="fil29" d="M3570 2618c0,0 -15,106 89,95 105,-12 66,-109 66,-109 0,0 -73,-101 -155,14z"/>
  <ellipse class="fil5 str0" cx="3838" cy="1917" rx="49" ry="54"/>
  <path class="fil31 str31" d="M2385 5381c127,60 221,147 285,237l-139 320 -377 -25 -92 -330c59,-100 175,-162 323,-202z"/>
  <path class="fil20 str39" d="M2971 5971c0,0 688,842 764,1263 1833,-1807 1147,-4181 60,-2503 0,0 -142,1138 -824,1240z"/>
 </g>
</svg>
